<svg width="50" height="50" viewBox="0 0 50 50" fill="none" xmlns="http://www.w3.org/2000/svg">
<g clip-path="url(#clip0_10_370)">
<path d="M10.8316 0H39.1683C45.1466 0 50 4.85351 50 10.8316V39.1683C50 45.1466 45.1466 50 39.1683 50H10.8316C4.85351 50 0 45.1466 0 39.1683V10.8316C0 4.85351 4.85351 0 10.8316 0Z" fill="#FFD02F"/>
<path d="M34.7441 6.24438H29.2543L33.8268 14.2793L23.7645 6.24438H18.2747L23.3058 16.0698L12.785 6.24438H7.29517L12.785 18.7481L7.29517 43.7555H12.785L23.3058 16.9576L18.2747 43.7555H23.7645L33.8268 15.182L29.2543 43.7555H34.7441L44.8064 12.4888L34.7441 6.24438Z" fill="#050038"/>
</g>
<defs>
<clipPath id="clip0_10_370">
<rect width="50" height="50" fill="white"/>
</clipPath>
</defs>
</svg>
