<svg width="50" height="46" viewBox="0 0 50 46" fill="none" xmlns="http://www.w3.org/2000/svg">
<g clip-path="url(#clip0_10_564)">
<path d="M10.8871 1.48669L24.9496 0L39.0121 1.48669L49.8992 16.1017L24.9496 45.1552L0 16.1017L10.8871 1.48669Z" fill="#FDB300"/>
<path d="M10.1058 16.1017L24.9496 45.1552L0 16.1017H10.1058Z" fill="#EA6C00"/>
<path d="M39.7933 16.1017L24.9496 45.1552L49.8992 16.1017H39.7933Z" fill="#EA6C00"/>
<path d="M10.1058 16.1017H39.7934L24.9496 45.1552L10.1058 16.1017Z" fill="#FDAD00"/>
<path d="M24.9496 0L10.8871 1.48668L10.1058 16.1017L24.9496 0Z" fill="#FDD231"/>
<path d="M24.9496 0L39.0121 1.48668L39.7933 16.1017L24.9496 0Z" fill="#FDD231"/>
<path d="M49.8992 16.1017L39.012 1.48669L39.7934 16.1017H49.8992Z" fill="#FDAD00"/>
<path d="M0 16.1017L10.8871 1.48669L10.1058 16.1017H0Z" fill="#FDAD00"/>
<path d="M24.9496 0L10.1058 16.1017H39.7934L24.9496 0Z" fill="#FEEEB7"/>
</g>
<defs>
<clipPath id="clip0_10_564">
<rect width="50" height="45.1777" fill="white"/>
</clipPath>
</defs>
</svg>
